<?xml version="1.0" standalone="no"?>
<!DOCTYPE svg PUBLIC "-//W3C//DTD SVG 20010904//EN"
 "http://www.w3.org/TR/2001/REC-SVG-20010904/DTD/svg10.dtd">
<svg version="1.0" xmlns="http://www.w3.org/2000/svg"
 width="471.000000pt" height="530.000000pt" viewBox="0 0 471.000000 530.000000"
 preserveAspectRatio="xMidYMid meet">

<g transform="translate(0.000000,530.000000) scale(0.100000,-0.100000)"
fill="#000000" stroke="none">
<path d="M2275 5044 c-22 -8 -49 -18 -60 -23 -11 -6 -51 -22 -90 -37 -81 -31
-198 -88 -237 -115 -36 -26 -39 -24 -32 19 4 28 2 41 -10 52 -18 14 -11 19
-128 -88 l-58 -53 -58 7 c-51 5 -65 3 -113 -21 -69 -35 -114 -78 -146 -139
l-25 -49 -93 6 c-114 8 -137 0 -221 -75 -131 -116 -347 -335 -369 -373 -12
-22 -31 -65 -40 -95 -16 -48 -33 -70 -137 -171 -65 -64 -118 -114 -118 -113 0
8 -57 -55 -100 -110 -97 -124 -148 -258 -185 -486 -54 -340 -55 -320 8 -452
86 -181 137 -342 137 -435 0 -49 -1 -52 -27 -55 -25 -3 -28 -8 -31 -43 -5 -53
15 -147 45 -212 12 -28 23 -55 23 -59 0 -7 37 -88 67 -149 55 -109 145 -328
205 -498 13 -39 27 -61 42 -67 37 -14 56 -46 76 -126 35 -149 88 -239 173
-297 66 -45 112 -57 218 -57 93 0 141 -14 174 -50 35 -39 138 -77 227 -84 48
-4 85 -19 215 -86 87 -45 175 -95 197 -110 31 -23 43 -27 62 -20 13 5 24 8 25
7 1 -1 2 -15 3 -32 1 -34 -6 -33 151 -14 124 14 378 11 470 -7 44 -9 123 -17
175 -18 89 -1 100 -4 168 -38 85 -44 109 -47 121 -15 11 28 26 39 71 54 84 28
180 28 180 0 0 -17 70 -71 71 -55 1 7 0 27 -1 45 -2 43 29 73 78 73 51 0 63
10 69 59 5 36 18 55 103 141 110 113 139 127 176 87 13 -14 24 -32 24 -39 0
-9 3 -9 11 -1 14 14 -12 71 -47 104 -28 27 -32 59 -6 59 10 0 23 5 30 12 7 7
37 12 67 12 45 1 55 4 55 18 0 24 31 38 80 38 53 0 100 27 100 57 0 24 17 75
28 83 4 3 19 21 33 40 15 19 39 49 53 65 15 17 40 51 57 78 17 26 35 47 40 47
5 0 9 7 9 15 0 8 8 23 19 34 19 19 225 427 236 469 l7 24 -29 -18 c-38 -24
-72 -59 -120 -125 -49 -67 -68 -83 -88 -75 -12 4 -22 -6 -36 -37 -18 -39 -19
-39 -14 -10 7 37 3 40 -22 18 -27 -22 -180 -136 -227 -169 -22 -16 -43 -32
-46 -36 -12 -18 -431 -320 -445 -320 -3 0 -15 -8 -26 -18 -10 -11 -32 -25 -47
-33 -15 -8 -29 -16 -32 -19 -17 -18 -61 -38 -86 -40 -46 -3 -52 -1 -59 20 -7
23 -18 25 -37 7 -16 -17 -53 -37 -67 -37 -5 0 -11 10 -13 22 -2 14 -13 24 -33
30 -26 7 -33 4 -57 -24 -23 -26 -28 -29 -34 -15 -9 23 -22 21 -26 -3 -2 -12
-6 -19 -10 -18 -3 2 -17 -7 -31 -20 l-25 -23 -32 33 c-28 29 -31 30 -25 10 5
-18 2 -25 -14 -29 -13 -3 -21 -13 -21 -27 0 -14 -17 -36 -44 -59 -37 -30 -53
-37 -88 -37 -24 0 -94 -10 -156 -22 l-113 -22 -92 22 c-130 31 -306 59 -417
67 -173 12 -285 43 -404 109 l-65 36 25 25 c36 36 32 73 -5 41 -9 -7 -35 -16
-58 -19 l-43 -5 -143 139 c-79 76 -161 152 -183 169 -63 50 -395 390 -448 458
-45 60 -116 196 -116 224 0 8 -4 18 -9 24 -5 5 -14 27 -21 49 -21 67 -36 85
-68 79 -22 -5 -30 -1 -41 19 -20 38 -11 71 22 75 27 3 27 4 22 55 -4 29 -10
75 -15 102 -25 138 -28 228 -11 249 24 29 51 131 61 226 5 58 15 143 21 190 5
47 14 128 19 180 11 115 33 219 67 320 29 89 115 256 149 293 13 14 24 29 24
33 0 25 252 288 441 460 52 47 126 97 214 144 44 23 89 50 100 61 11 10 34 24
50 31 17 7 50 26 75 42 67 44 234 121 325 150 121 40 244 57 410 60 165 3 187
9 205 60 11 32 12 83 2 106 -4 8 -20 16 -36 17 -15 1 -38 9 -50 18 -101 75
-90 71 -151 49z m-1856 -3089 c12 -25 21 -49 21 -54 0 -6 9 -26 21 -45 18 -32
19 -36 5 -36 -10 0 -28 12 -42 27 -19 21 -25 36 -22 60 2 18 2 30 -1 28 -5 -5
-31 42 -31 56 0 5 6 9 14 9 8 0 23 -20 35 -45z m-75 -12 l16 -48 -31 32 c-20
20 -30 37 -26 47 11 28 25 17 41 -31z"/>
<path d="M3019 4903 c-21 -2 -46 -14 -59 -28 -19 -21 -29 -23 -70 -18 -145 17
-222 -45 -177 -144 30 -68 158 -137 287 -153 65 -9 100 -20 150 -48 64 -35
426 -272 465 -304 33 -27 106 -81 165 -121 90 -61 104 -71 124 -89 42 -38 70
-41 125 -14 27 14 54 26 59 26 5 0 12 -35 15 -77 5 -74 26 -140 75 -242 9 -19
40 -51 68 -72 92 -68 112 -121 92 -245 -9 -62 -9 -64 26 -124 51 -87 111 -165
146 -190 16 -12 33 -33 36 -48 3 -15 10 -37 16 -50 11 -21 13 -21 36 -6 30 19
39 12 24 -21 -6 -14 -9 -32 -6 -40 4 -8 2 -21 -2 -28 -5 -6 -7 -64 -4 -127 l5
-115 8 105 c9 128 10 142 18 155 4 6 10 30 14 54 4 25 16 69 26 100 11 30 19
58 19 63 0 17 -16 7 -33 -22 -35 -58 -43 -40 -56 123 -12 163 -26 287 -45 407
-12 73 -17 83 -250 455 -131 209 -248 391 -262 406 -13 14 -24 28 -24 32 0 4
-14 20 -32 35 -17 15 -50 45 -72 66 -78 74 -394 246 -451 246 -8 0 -17 5 -20
10 -3 6 -17 10 -31 10 -14 0 -34 5 -44 10 -34 18 -274 33 -361 23z"/>
<path d="M2567 3664 c-4 -4 -7 -58 -7 -121 l0 -113 -25 0 c-31 0 -32 -20 -2
-77 37 -71 88 -153 95 -153 18 1 33 21 73 95 24 44 49 86 56 93 22 22 15 32
-22 32 l-34 0 -3 123 -3 122 -60 3 c-34 2 -64 0 -68 -4z"/>
<path d="M2314 3537 c-59 -28 -104 -82 -127 -151 -24 -69 -21 -119 9 -182 49
-105 118 -149 229 -149 61 0 77 4 128 33 31 19 57 38 57 44 0 19 -34 68 -47
68 -7 0 -13 -4 -13 -10 0 -18 -79 -50 -125 -50 -97 0 -165 69 -165 167 0 58
37 123 85 148 31 18 130 18 168 1 15 -7 17 -2 17 37 0 25 -5 49 -12 53 -6 4
-43 9 -82 11 -60 3 -79 0 -122 -20z"/>
<path d="M1872 3488 c-32 -32 0 -98 47 -98 24 0 33 -16 76 -140 13 -36 40
-108 60 -160 20 -52 46 -124 58 -159 32 -92 33 -93 217 -70 399 48 405 49 423
68 19 18 54 146 77 276 6 39 16 77 20 86 11 22 -24 79 -49 79 -31 0 -51 -44
-82 -183 -16 -73 -33 -141 -38 -153 -10 -22 6 -19 -346 -58 -130 -15 -120 -22
-166 109 -17 50 -37 104 -44 120 -11 28 -22 56 -78 205 -28 74 -47 90 -111 90
-29 0 -57 -5 -64 -12z"/>
<path d="M2403 3430 c-3 -11 -9 -20 -13 -20 -18 0 -40 -33 -40 -59 0 -28 34
-70 46 -58 10 10 44 -12 44 -29 0 -12 -10 -15 -42 -12 -40 2 -43 1 -43 -22 0
-18 6 -26 22 -28 12 -2 25 -12 28 -23 9 -26 24 -24 35 5 5 13 18 27 29 31 59
18 45 97 -20 117 -54 16 -53 43 0 35 38 -5 39 -4 31 18 -22 57 -67 83 -77 45z"/>
<path d="M2158 2767 c-57 -47 -52 -124 10 -160 40 -24 74 -17 113 23 47 46 39
102 -21 143 -33 23 -70 21 -102 -6z"/>
<path d="M2624 2772 c-67 -54 -56 -147 20 -172 40 -13 83 4 110 42 41 58 -3
148 -72 148 -21 0 -47 -8 -58 -18z"/>
<path d="M2802 2403 c-7 -3 -20 -19 -28 -35 -13 -25 -14 -35 -4 -53 28 -52 95
-57 126 -10 13 20 14 30 4 59 -14 43 -52 58 -98 39z"/>
<path d="M944 2297 c-3 -8 -4 -129 -2 -268 3 -241 4 -256 25 -296 78 -146 338
-121 381 37 9 32 12 118 10 290 l-3 245 -55 0 -55 0 -5 -265 c-3 -146 -7 -266
-8 -267 -30 -31 -51 -43 -73 -43 -39 0 -75 15 -85 37 -4 10 -10 135 -13 278
l-6 260 -53 3 c-38 2 -54 -1 -58 -11z"/>
<path d="M1645 2161 c-11 -5 -29 -18 -39 -30 -24 -27 -34 -27 -38 2 -3 19 -9
22 -53 22 l-50 0 0 -250 0 -250 55 0 55 0 3 180 2 180 32 32 c34 35 59 41 77
20 7 -9 12 -86 13 -213 l3 -199 55 0 55 0 3 202 c2 187 1 206 -18 243 -30 59
-96 85 -155 61z"/>
<path d="M2045 2163 c-39 -10 -84 -54 -111 -109 -23 -47 -27 -69 -28 -142 -2
-160 58 -255 174 -276 64 -11 180 33 180 68 0 6 -9 22 -19 35 -18 23 -19 23
-51 7 -51 -25 -143 -18 -146 11 0 4 -3 15 -7 23 -3 8 -8 32 -12 52 l-6 37 127
3 c155 4 154 3 132 116 -28 141 -112 204 -233 175z m94 -90 c16 -13 24 -33 28
-75 l6 -58 -76 0 -77 0 7 48 c7 59 18 81 46 92 32 13 43 12 66 -7z"/>
<path d="M3500 2163 c-14 -2 -38 -9 -53 -15 -24 -9 -27 -15 -22 -37 10 -40 24
-52 45 -41 10 6 41 10 68 10 61 0 82 -20 82 -78 l0 -42 -48 0 c-86 0 -172 -58
-172 -115 0 -8 -4 -15 -9 -15 -15 0 -6 -82 13 -122 32 -66 100 -90 170 -60 22
10 47 26 55 36 13 16 17 15 47 -15 17 -17 40 -29 50 -27 24 4 40 56 25 80 -7
11 -11 74 -11 170 0 130 -3 159 -20 196 -30 66 -109 93 -220 75z m120 -336 c0
-50 -4 -68 -21 -86 -46 -50 -109 -2 -95 73 9 50 37 76 81 76 l35 0 0 -63z"/>
<path d="M2320 2150 c0 -12 56 -223 71 -268 6 -19 13 -44 15 -55 6 -39 39
-152 47 -164 5 -8 31 -13 66 -13 35 0 62 5 68 13 5 6 20 53 32 102 13 50 31
119 41 155 43 153 59 225 51 233 -4 4 -30 7 -56 5 l-48 -3 -19 -90 c-11 -49
-27 -132 -36 -184 -17 -92 -37 -126 -46 -79 -2 13 -19 95 -36 183 -18 88 -34
163 -37 168 -6 11 -113 9 -113 -3z"/>
<path d="M2785 2148 c-3 -7 -4 -121 -3 -253 l3 -240 55 0 55 0 0 250 0 250
-53 3 c-36 2 -54 -1 -57 -10z"/>
<path d="M2959 2155 c-6 -5 -1 -28 36 -160 9 -33 27 -100 40 -150 14 -49 31
-112 38 -140 l14 -50 63 -3 c35 -2 67 1 72 6 7 7 59 189 83 292 1 8 13 51 25
95 31 117 33 110 -29 110 -52 0 -55 -1 -63 -30 -12 -42 -58 -273 -63 -314 -6
-52 -22 -60 -30 -15 -4 22 -16 84 -27 139 -12 55 -26 127 -32 160 l-11 60 -55
3 c-31 2 -58 0 -61 -3z"/>
</g>
</svg>
